<?xml version="1.0" encoding="UTF-8" standalone="no"?>
<svg
   xmlns:dc="http://purl.org/dc/elements/1.1/"
   xmlns:cc="http://creativecommons.org/ns#"
   xmlns:rdf="http://www.w3.org/1999/02/22-rdf-syntax-ns#"
   xmlns:svg="http://www.w3.org/2000/svg"
   xmlns="http://www.w3.org/2000/svg"
   xmlns:sodipodi="http://sodipodi.sourceforge.net/DTD/sodipodi-0.dtd"
   xmlns:inkscape="http://www.inkscape.org/namespaces/inkscape"
   id="libre-file-image"
   viewBox="0 0 14 14"
   version="1.1"
   inkscape:version="0.91 r13725"
   sodipodi:docname="libre-file-image.svg"
   inkscape:export-filename="/Users/aferrero/Projects/Photoflow/Git/Default/PhotoFlow/icons/libre-file-image.png"
   inkscape:export-xdpi="102.86"
   inkscape:export-ydpi="102.86">
  <metadata
     id="metadata9">
    <rdf:RDF>
      <cc:Work
         rdf:about="">
        <dc:format>image/svg+xml</dc:format>
        <dc:type
           rdf:resource="http://purl.org/dc/dcmitype/StillImage" />
      </cc:Work>
    </rdf:RDF>
  </metadata>
  <defs
     id="defs7" />
  <sodipodi:namedview
     pagecolor="#ffffff"
     bordercolor="#666666"
     borderopacity="1"
     objecttolerance="10"
     gridtolerance="10"
     guidetolerance="10"
     inkscape:pageopacity="0"
     inkscape:pageshadow="2"
     inkscape:window-width="693"
     inkscape:window-height="480"
     id="namedview5"
     showgrid="false"
     inkscape:zoom="16.857143"
     inkscape:cx="7"
     inkscape:cy="7"
     inkscape:window-x="0"
     inkscape:window-y="0"
     inkscape:window-maximized="0"
     inkscape:current-layer="libre-file-image" />
  <path
     d="m 4.0975496,6.5862148 c 0,-0.4169976 0.3381156,-0.7551474 0.7551822,-0.7551474 0.4169976,0 0.7551474,0.3381156 0.7551474,0.7551474 0,0.4170666 -0.3381156,0.7551822 -0.7551474,0.7551822 -0.4170324,0 -0.7551822,-0.3380814 -0.7551822,-0.7551822 z m 3.8302422,0.1020888 -1.25175,1.7785152 -0.6803286,-0.7011594 -1.919442,2.5874786 5.9999998,0 z M 7.640148,1.26517 C 7.49432,1.11934 7.20625,1 7,1 L 2.5,1 C 2.29375,1 2.125,1.16875 2.125,1.375 l 0,11.25 C 2.125,12.83125 2.29375,13 2.5,13 l 9,0 c 0.20625,0 0.375,-0.16875 0.375,-0.375 l 0,-6.75 c 0,-0.20625 -0.11932,-0.49432 -0.265148,-0.64015 L 7.640148,1.26517 Z M 11.125,12.25 l -8.25,0 0,-10.5 4.115133,0 c 0.03417,0.006 0.09853,0.0323 0.12668,0.0525 l 3.955734,3.95571 c 0.02018,0.0281 0.04683,0.0925 0.05245,0.12668 l 0,6.36513 z M 11.5,1 9.25,1 C 9.04375,1 8.99432,1.11932 9.140148,1.26515 l 2.46968,2.46968 C 11.75568,3.88068 11.875,3.83125 11.875,3.625 l 0,-2.25 C 11.875,1.16875 11.70625,1 11.5,1 Z"
     id="path3"
     style="fill:#fafafa;fill-opacity:1" />
</svg>
