<?xml version="1.0" encoding="UTF-8" standalone="no"?>
<svg
   xmlns:dc="http://purl.org/dc/elements/1.1/"
   xmlns:cc="http://creativecommons.org/ns#"
   xmlns:rdf="http://www.w3.org/1999/02/22-rdf-syntax-ns#"
   xmlns:svg="http://www.w3.org/2000/svg"
   xmlns="http://www.w3.org/2000/svg"
   xmlns:sodipodi="http://sodipodi.sourceforge.net/DTD/sodipodi-0.dtd"
   xmlns:inkscape="http://www.inkscape.org/namespaces/inkscape"
   id="libre-camera-landscape"
   viewBox="0 0 14 14"
   version="1.1"
   inkscape:version="0.91 r13725"
   sodipodi:docname="libre-camera-landscape.svg"
   inkscape:export-filename="/Users/aferrero/Projects/Photoflow/Git/Default/PhotoFlow/icons/libre-camera-landscape.png"
   inkscape:export-xdpi="102.86"
   inkscape:export-ydpi="102.86">
  <metadata
     id="metadata9">
    <rdf:RDF>
      <cc:Work
         rdf:about="">
        <dc:format>image/svg+xml</dc:format>
        <dc:type
           rdf:resource="http://purl.org/dc/dcmitype/StillImage" />
        <dc:title></dc:title>
      </cc:Work>
    </rdf:RDF>
  </metadata>
  <defs
     id="defs7" />
  <sodipodi:namedview
     pagecolor="#ffffff"
     bordercolor="#666666"
     borderopacity="1"
     objecttolerance="10"
     gridtolerance="10"
     guidetolerance="10"
     inkscape:pageopacity="0"
     inkscape:pageshadow="2"
     inkscape:window-width="1283"
     inkscape:window-height="760"
     id="namedview5"
     showgrid="false"
     inkscape:zoom="16.857143"
     inkscape:cx="7"
     inkscape:cy="7"
     inkscape:window-x="0"
     inkscape:window-y="0"
     inkscape:window-maximized="0"
     inkscape:current-layer="libre-camera-landscape" />
  <path
     d="m 11.901841,3.529745 c -0.0225,0 -0.04479,8.9e-4 -0.06694,0.002 -0.05836,-0.75269 -0.6876,-1.34528 -1.455269,-1.34528 -0.7676553,0 -1.3968924,0.59259 -1.4552558,1.34528 -0.022164,-10e-4 -0.04443,-0.002 -0.066938,-0.002 -0.6064864,0 -1.0981473,0.49167 -1.0981473,1.09816 0,0.60649 0.4916481,1.09814 1.0981473,1.09814 l 3.0444008,0 c 0.606486,0 1.09816,-0.49165 1.09816,-1.09814 0,-0.6065 -0.491661,-1.09816 -1.09816,-1.09816 z m -10.6462601,8.28379 11.1206441,0 c 0.190695,0 0.314019,-0.20156 0.227214,-0.37136 l -1.732157,-3.38789 c -0.08257,-0.16151 -0.302547,-0.18772 -0.420767,-0.0502 L 9.0037059,9.687655 5.6824302,4.302325 c -0.100777,-0.16344 -0.339194,-0.16119 -0.4368831,0.004 l -4.2096518,7.12204 c -0.10054728,0.17011 0.022074,0.38504 0.2196856,0.38504 z"
     id="path3"
     style="stroke:none;stroke-opacity:1;fill:#fafafa;fill-opacity:1" />
</svg>
