<?xml version="1.0" encoding="UTF-8" standalone="no"?>
<svg
   xmlns:dc="http://purl.org/dc/elements/1.1/"
   xmlns:cc="http://creativecommons.org/ns#"
   xmlns:rdf="http://www.w3.org/1999/02/22-rdf-syntax-ns#"
   xmlns:svg="http://www.w3.org/2000/svg"
   xmlns="http://www.w3.org/2000/svg"
   xmlns:sodipodi="http://sodipodi.sourceforge.net/DTD/sodipodi-0.dtd"
   xmlns:inkscape="http://www.inkscape.org/namespaces/inkscape"
   id="libre-info"
   viewBox="0 0 14 14"
   version="1.1"
   inkscape:version="0.91 r13725"
   sodipodi:docname="libre-info.svg"
   inkscape:export-filename="/Users/aferrero/Projects/Photoflow/Git/Default/PhotoFlow/icons/libre-info.png"
   inkscape:export-xdpi="90"
   inkscape:export-ydpi="90">
  <metadata
     id="metadata9">
    <rdf:RDF>
      <cc:Work
         rdf:about="">
        <dc:format>image/svg+xml</dc:format>
        <dc:type
           rdf:resource="http://purl.org/dc/dcmitype/StillImage" />
      </cc:Work>
    </rdf:RDF>
  </metadata>
  <defs
     id="defs7" />
  <sodipodi:namedview
     pagecolor="#ffffff"
     bordercolor="#666666"
     borderopacity="1"
     objecttolerance="10"
     gridtolerance="10"
     guidetolerance="10"
     inkscape:pageopacity="0"
     inkscape:pageshadow="2"
     inkscape:window-width="1280"
     inkscape:window-height="751"
     id="namedview5"
     showgrid="false"
     inkscape:zoom="16.857143"
     inkscape:cx="7"
     inkscape:cy="7"
     inkscape:window-x="0"
     inkscape:window-y="1"
     inkscape:window-maximized="1"
     inkscape:current-layer="libre-info" />
  <path
     d="m 6.5425779,11.8524 c -1.17674,0.4136 -2.14677,-0.0607 -1.95214,-1.19067 0.19458,-1.1303397 1.31122,-3.5501997 1.47053,-4.0076497 0.15917,-0.4576 -0.14609,-0.58307 -0.4733,-0.39694 -0.1887,0.10891 -0.46914,0.32712 -0.70997,0.53916 -0.0667,-0.13435 -0.16065,-0.28802 -0.23114,-0.43516 0.39288,-0.39374 1.04964,-0.92159 1.8272,-1.11283 0.92889,-0.22933 2.48151,0.13721 1.81421,1.91281 -0.4765,1.26555 -0.81349,2.13889 -1.02587,2.78926 -0.21219,0.6505997 0.0399,0.7869997 0.41144,0.5335297 0.29022,-0.19816 0.59954,-0.46772 0.82619,-0.6768597 0.10485,0.17043 0.1384,0.2247897 0.24211,0.4206097 -0.3935,0.40334 -1.42281,1.34717 -2.19926,1.62474 z m 2.43804,-7.8285997 c -0.53372,0.4543 -1.32483,0.44442 -1.76735,-0.0222 -0.44247,-0.46638 -0.36863,-1.21277 0.16494,-1.66722 0.53372,-0.45425 1.32493,-0.44442 1.76735,0.022 0.44242,0.46657 0.36863,1.21305 -0.16494,1.6675 z"
     id="path3"
     style="stroke:none;stroke-opacity:1;fill:#fafafa;fill-opacity:1" />
</svg>
