<?xml version="1.0" encoding="UTF-8" standalone="no"?>
<svg
   xmlns:dc="http://purl.org/dc/elements/1.1/"
   xmlns:cc="http://creativecommons.org/ns#"
   xmlns:rdf="http://www.w3.org/1999/02/22-rdf-syntax-ns#"
   xmlns:svg="http://www.w3.org/2000/svg"
   xmlns="http://www.w3.org/2000/svg"
   xmlns:sodipodi="http://sodipodi.sourceforge.net/DTD/sodipodi-0.dtd"
   xmlns:inkscape="http://www.inkscape.org/namespaces/inkscape"
   id="libre-floppy"
   viewBox="0 0 14 14"
   version="1.1"
   inkscape:version="0.91 r13725"
   sodipodi:docname="libre-floppy.svg"
   inkscape:export-filename="/Users/aferrero/Projects/Photoflow/Git/Default/PhotoFlow/icons/libre-floppy.png"
   inkscape:export-xdpi="102.86"
   inkscape:export-ydpi="102.86">
  <metadata
     id="metadata4246">
    <rdf:RDF>
      <cc:Work
         rdf:about="">
        <dc:format>image/svg+xml</dc:format>
        <dc:type
           rdf:resource="http://purl.org/dc/dcmitype/StillImage" />
      </cc:Work>
    </rdf:RDF>
  </metadata>
  <defs
     id="defs4244" />
  <sodipodi:namedview
     pagecolor="#ffffff"
     bordercolor="#666666"
     borderopacity="1"
     objecttolerance="10"
     gridtolerance="10"
     guidetolerance="10"
     inkscape:pageopacity="0"
     inkscape:pageshadow="2"
     inkscape:window-width="1284"
     inkscape:window-height="760"
     id="namedview4242"
     showgrid="false"
     inkscape:zoom="16.857143"
     inkscape:cx="6.940678"
     inkscape:cy="7"
     inkscape:window-x="0"
     inkscape:window-y="0"
     inkscape:window-maximized="0"
     inkscape:current-layer="libre-floppy" />
  <path
     d="m 4,12 h 6 V 9 H 4 v 3 z m 7,0 h 1 V 5 Q 12,4.890625 11.9219,4.699219 11.8438,4.507813 11.76564,4.429688 L 9.57033,2.234375 Q 9.49223,2.156245 9.30471,2.078125 9.11719,2 9,2 V 5.25 Q 9,5.5625 8.78125,5.78125 8.5625,6 8.25,6 H 3.75 Q 3.4375,6 3.21875,5.78125 3,5.5625 3,5.25 V 2 H 2 V 12 H 3 V 8.75 Q 3,8.4375 3.21875,8.21875 3.4375,8 3.75,8 h 6.5 Q 10.5625,8 10.78125,8.21875 11,8.4375 11,8.75 V 12 z M 8,4.75 V 2.25 Q 8,2.148438 7.9258,2.074219 7.85156,2 7.75,2 H 6.25 Q 6.14844,2 6.07422,2.07422 6,2.148438 6,2.25 v 2.5 Q 6,4.851562 6.0742,4.925781 6.14844,5 6.25,5 h 1.5 Q 7.85156,5 7.92578,4.92578 8,4.851562 8,4.75 z M 13,5 v 7.25 q 0,0.3125 -0.21875,0.53125 Q 12.5625,13 12.25,13 H 1.75 Q 1.4375,13 1.21875,12.78125 1,12.5625 1,12.25 V 1.75 Q 1,1.4375 1.21875,1.21875 1.4375,1 1.75,1 H 9 q 0.3125,0 0.6875,0.15625 0.375,0.15625 0.59375,0.375 l 2.1875,2.1875 Q 12.6875,3.9375 12.84375,4.3125 13,4.6875 13,5 z"
     id="path4240"
     style="fill:#fafafa;fill-opacity:1" />
</svg>
