<?xml version="1.0" encoding="UTF-8" standalone="no"?>
<svg
   xmlns:dc="http://purl.org/dc/elements/1.1/"
   xmlns:cc="http://creativecommons.org/ns#"
   xmlns:rdf="http://www.w3.org/1999/02/22-rdf-syntax-ns#"
   xmlns:svg="http://www.w3.org/2000/svg"
   xmlns="http://www.w3.org/2000/svg"
   xmlns:sodipodi="http://sodipodi.sourceforge.net/DTD/sodipodi-0.dtd"
   xmlns:inkscape="http://www.inkscape.org/namespaces/inkscape"
   id="libre-sign-out"
   viewBox="0 0 16 16"
   version="1.1"
   inkscape:version="0.91 r13725"
   sodipodi:docname="libre-sign-out.svg"
   inkscape:export-filename="/Users/aferrero/Projects/Photoflow/Git/Default/PhotoFlow/icons/libre-sign-out.png"
   inkscape:export-xdpi="90"
   inkscape:export-ydpi="90"
   width="16"
   height="16">
  <metadata
     id="metadata9">
    <rdf:RDF>
      <cc:Work
         rdf:about="">
        <dc:format>image/svg+xml</dc:format>
        <dc:type
           rdf:resource="http://purl.org/dc/dcmitype/StillImage" />
        <dc:title></dc:title>
      </cc:Work>
    </rdf:RDF>
  </metadata>
  <defs
     id="defs7" />
  <sodipodi:namedview
     pagecolor="#ffffff"
     bordercolor="#666666"
     borderopacity="1"
     objecttolerance="10"
     gridtolerance="10"
     guidetolerance="10"
     inkscape:pageopacity="0"
     inkscape:pageshadow="2"
     inkscape:window-width="1280"
     inkscape:window-height="751"
     id="namedview5"
     showgrid="true"
     inkscape:zoom="16.857143"
     inkscape:cx="-3.2627119"
     inkscape:cy="7"
     inkscape:window-x="0"
     inkscape:window-y="1"
     inkscape:window-maximized="1"
     inkscape:current-layer="libre-sign-out">
    <inkscape:grid
       type="xygrid"
       id="grid4137" />
  </sodipodi:namedview>
  <path
     d="m 6.7212047,13.058366 q 0,0.03744 0.00934,0.18728 0.00934,0.149827 0.00467,0.24814 -0.00467,0.09838 -0.026866,0.220059 -0.02231,0.121745 -0.089358,0.182606 -0.067048,0.06081 -0.18326,0.06081 l -2.8606023,0 q -1.0637813,0 -1.8191617,-0.791258 Q 1,12.374782 1,11.260465 L 1,4.6681638 Q 1,3.5538464 1.7553781,2.7625881 2.5107584,1.9713177 3.5745397,1.9713177 l 2.8606024,0 q 0.1162239,0 0.2011432,0.088953 0.084919,0.088953 0.084919,0.2106865 0,0.037441 0.00934,0.1872796 0.00934,0.1498261 0.00467,0.2481522 -0.00467,0.098252 -0.026866,0.2200469 -0.02231,0.1217451 -0.089358,0.1826055 -0.067047,0.060811 -0.1832599,0.060811 l -2.8606023,0 q -0.5899968,0 -1.0101432,0.4401182 -0.420155,0.4401065 -0.420155,1.0581317 l 0,6.5923004 q 0,0.618026 0.4201557,1.058131 0.4201465,0.440119 1.0101432,0.440119 l 2.7890925,0 0.102791,0.0097 0.102791,0.02814 0.071486,0.05152 0.062609,0.08431 0.017872,0.12642 z M 15.016949,7.9643143 q 0,0.243466 -0.16985,0.4213853 L 9.9840819,13.47974 q -0.1698507,0.177918 -0.4022749,0.177918 -0.2324243,0 -0.4022748,-0.177918 -0.1698503,-0.177908 -0.1698503,-0.421374 l 0,-2.696857 -4.004841,0 q -0.2324244,0 -0.4022747,-0.177908 Q 4.4327275,10.005682 4.4327275,9.7622158 l 0,-3.5958029 q 0,-0.2434659 0.1698387,-0.421373 0.1698503,-0.1779193 0.4022747,-0.1779193 l 4.004841,0 0,-2.696846 q 0,-0.243466 0.1698503,-0.4213853 Q 9.3493827,2.27097 9.581807,2.27097 q 0.2324242,0 0.4022749,0.1779193 l 4.8630171,5.0940398 q 0.16985,0.1779194 0.16985,0.4213852 z"
     id="path3"
     style="fill:#fafafa;fill-opacity:1"
     inkscape:connector-curvature="0" />
</svg>
