<?xml version="1.0" encoding="UTF-8" standalone="no"?>
<svg
   xmlns:dc="http://purl.org/dc/elements/1.1/"
   xmlns:cc="http://creativecommons.org/ns#"
   xmlns:rdf="http://www.w3.org/1999/02/22-rdf-syntax-ns#"
   xmlns:svg="http://www.w3.org/2000/svg"
   xmlns="http://www.w3.org/2000/svg"
   xmlns:sodipodi="http://sodipodi.sourceforge.net/DTD/sodipodi-0.dtd"
   xmlns:inkscape="http://www.inkscape.org/namespaces/inkscape"
   id="libre-sliders"
   viewBox="0 0 16 16"
   version="1.1"
   inkscape:version="0.91 r13725"
   sodipodi:docname="libre-sliders.svg"
   inkscape:export-filename="/Users/aferrero/Projects/Photoflow/Git/Default/PhotoFlow/icons/libre-sliders.png"
   inkscape:export-xdpi="90"
   inkscape:export-ydpi="90"
   width="16"
   height="16">
  <metadata
     id="metadata9">
    <rdf:RDF>
      <cc:Work
         rdf:about="">
        <dc:format>image/svg+xml</dc:format>
        <dc:type
           rdf:resource="http://purl.org/dc/dcmitype/StillImage" />
        <dc:title></dc:title>
      </cc:Work>
    </rdf:RDF>
  </metadata>
  <defs
     id="defs7" />
  <sodipodi:namedview
     pagecolor="#ffffff"
     bordercolor="#666666"
     borderopacity="1"
     objecttolerance="10"
     gridtolerance="10"
     guidetolerance="10"
     inkscape:pageopacity="0"
     inkscape:pageshadow="2"
     inkscape:window-width="1280"
     inkscape:window-height="751"
     id="namedview5"
     showgrid="true"
     inkscape:zoom="16.857143"
     inkscape:cx="7"
     inkscape:cy="7"
     inkscape:window-x="0"
     inkscape:window-y="1"
     inkscape:window-maximized="1"
     inkscape:current-layer="libre-sliders">
    <inkscape:grid
       type="xygrid"
       id="grid4137" />
  </sodipodi:namedview>
  <path
     d="m 4.0898658,12.328775 0,1.231446 -3.386476,0 0,-1.231446 3.386476,0 z m 3.386476,-1.231446 q 0.2501436,0 0.432927,0.182796 0.1827959,0.182784 0.1827959,0.432927 l 0,2.462892 q 0,0.250143 -0.1827959,0.432927 -0.1827834,0.182796 -0.432927,0.182796 l -2.4628916,0 q -0.2501313,0 -0.4329271,-0.182796 -0.1827959,-0.182784 -0.1827959,-0.432927 l 0,-2.462892 q 0,-0.250143 0.1827959,-0.432927 0.1827958,-0.182796 0.4329271,-0.182796 l 2.4628916,0 z m 1.5393073,-3.6943373 0,1.2314458 -8.3122593,0 0,-1.2314458 8.3122593,0 z M 2.85842,2.4772084 l 0,1.2314459 -2.1550302,0 0,-1.2314459 2.1550302,0 z m 12.622319,9.8515666 0,1.231446 -7.0808129,0 0,-1.231446 7.0808129,0 z M 6.2448959,1.2457626 q 0.2501313,0 0.4329271,0.1827959 0.1827959,0.1827958 0.1827959,0.4329271 l 0,2.4628915 q 0,0.2501314 -0.1827959,0.4329271 -0.1827958,0.1827959 -0.4329271,0.1827959 l -2.4628916,0 q -0.2501435,0 -0.432927,-0.1827959 Q 3.1662815,4.5745085 3.1662815,4.3243771 l 0,-2.4628915 q 0,-0.2501313 0.1827958,-0.4329271 0.1827835,-0.1827959 0.432927,-0.1827959 l 2.4628916,0 z M 12.402126,6.171546 q 0.25013,0 0.432927,0.1827957 0.182795,0.1827836 0.182795,0.4329271 l 0,2.4628917 q 0,0.2501312 -0.182795,0.4329271 -0.182797,0.1827958 -0.432927,0.1827958 l -2.4628921,0 q -0.2501318,0 -0.4329276,-0.1827958 Q 9.3235105,9.5002917 9.3235105,9.2501605 l 0,-2.4628917 q 0,-0.2501435 0.1827958,-0.4329271 Q 9.6891021,6.171546 9.9392339,6.171546 l 2.4628921,0 z m 3.078613,1.2314457 0,1.2314458 -2.155029,0 0,-1.2314458 2.155029,0 z m 0,-4.9257833 0,1.2314459 -8.3122586,0 0,-1.2314459 8.3122586,0 z"
     id="path3"
     style="fill:#fafafa;fill-opacity:1"
     inkscape:connector-curvature="0" />
</svg>
