<?xml version="1.0" encoding="UTF-8" standalone="no"?>
<svg
   xmlns:dc="http://purl.org/dc/elements/1.1/"
   xmlns:cc="http://creativecommons.org/ns#"
   xmlns:rdf="http://www.w3.org/1999/02/22-rdf-syntax-ns#"
   xmlns:svg="http://www.w3.org/2000/svg"
   xmlns="http://www.w3.org/2000/svg"
   xmlns:sodipodi="http://sodipodi.sourceforge.net/DTD/sodipodi-0.dtd"
   xmlns:inkscape="http://www.inkscape.org/namespaces/inkscape"
   viewBox="-29600 -256 0 1850"
   id="svg2"
   version="1.1"
   inkscape:version="0.91 r13725"
   width="24"
   height="16"
   sodipodi:docname="mask_exclusion_active.svg"
   inkscape:export-filename="/Users/aferrero/Projects/PhotoFlow/Git/Default/PhotoFlow/icons/mask_exclusion_active.png"
   inkscape:export-xdpi="90"
   inkscape:export-ydpi="90">
  <metadata
     id="metadata12">
    <rdf:RDF>
      <cc:Work
         rdf:about="">
        <dc:format>image/svg+xml</dc:format>
        <dc:type
           rdf:resource="http://purl.org/dc/dcmitype/StillImage" />
        <dc:title></dc:title>
      </cc:Work>
    </rdf:RDF>
  </metadata>
  <defs
     id="defs10" />
  <sodipodi:namedview
     pagecolor="#ffffff"
     bordercolor="#666666"
     borderopacity="1"
     objecttolerance="10"
     gridtolerance="10"
     guidetolerance="10"
     inkscape:pageopacity="0"
     inkscape:pageshadow="2"
     inkscape:window-width="1280"
     inkscape:window-height="751"
     id="namedview8"
     showgrid="true"
     inkscape:zoom="22.627417"
     inkscape:cx="10.947611"
     inkscape:cy="7.6905"
     inkscape:window-x="0"
     inkscape:window-y="1"
     inkscape:window-maximized="1"
     inkscape:current-layer="svg2">
    <inkscape:grid
       type="xygrid"
       id="grid4184" />
  </sodipodi:namedview>
  <path
     style="opacity:1;fill:#fafafa;fill-opacity:1;stroke:#323232;stroke-width:0.5;stroke-linecap:round;stroke-miterlimit:4;stroke-dasharray:none;stroke-dashoffset:0;stroke-opacity:1"
     d="M 2 2 L 2 11 L 9.1640625 11 A 6.5 5 0 0 1 9.0214844 9.9882812 A 6.5 5 0 0 1 15 5.0078125 L 15 2 L 2 2 z M 15 5.0078125 L 15 11 L 9.1640625 11 A 6.5 5 0 0 0 15.521484 14.988281 A 6.5 5 0 0 0 22.021484 9.9882812 A 6.5 5 0 0 0 15.521484 4.9882812 A 6.5 5 0 0 0 15 5.0078125 z "
     id="rect4186" />
</svg>
