<?xml version="1.0" encoding="UTF-8" standalone="no"?>
<svg
   xmlns:dc="http://purl.org/dc/elements/1.1/"
   xmlns:cc="http://creativecommons.org/ns#"
   xmlns:rdf="http://www.w3.org/1999/02/22-rdf-syntax-ns#"
   xmlns:svg="http://www.w3.org/2000/svg"
   xmlns="http://www.w3.org/2000/svg"
   xmlns:sodipodi="http://sodipodi.sourceforge.net/DTD/sodipodi-0.dtd"
   xmlns:inkscape="http://www.inkscape.org/namespaces/inkscape"
   viewBox="0 -256 1792 1792"
   id="svg2"
   version="1.1"
   inkscape:version="0.91 r13725"
   width="100%"
   height="100%"
   sodipodi:docname="pushpin_active.svg"
   inkscape:export-filename="/Users/ferrero/Source/PhotoFlow/Git/NewControls/PhotoFlow/icons/pushpin_active.png"
   inkscape:export-xdpi="0.60000002"
   inkscape:export-ydpi="0.60000002">
  <metadata
     id="metadata12">
    <rdf:RDF>
      <cc:Work
         rdf:about="">
        <dc:format>image/svg+xml</dc:format>
        <dc:type
           rdf:resource="http://purl.org/dc/dcmitype/StillImage" />
        <dc:title></dc:title>
      </cc:Work>
    </rdf:RDF>
  </metadata>
  <defs
     id="defs10" />
  <sodipodi:namedview
     pagecolor="#ffffff"
     bordercolor="#666666"
     borderopacity="1"
     objecttolerance="10"
     gridtolerance="10"
     guidetolerance="10"
     inkscape:pageopacity="0"
     inkscape:pageshadow="2"
     inkscape:window-width="1280"
     inkscape:window-height="752"
     id="namedview8"
     showgrid="false"
     inkscape:zoom="0.13169643"
     inkscape:cx="808.67797"
     inkscape:cy="896"
     inkscape:window-x="0"
     inkscape:window-y="0"
     inkscape:window-maximized="1"
     inkscape:current-layer="svg2" />
  <g
     transform="matrix(0.8660254,0.5,0.5,-0.8660254,52.08462,944.32213)"
     id="g4">
    <path
       d="m 480,672 0,448 q 0,14 -9,23 -9,9 -23,9 -14,0 -23,-9 -9,-9 -9,-23 l 0,-448 q 0,-14 9,-23 9,-9 23,-9 14,0 23,9 9,9 9,23 z m 672,-352 q 0,-26 -19,-45 -19,-19 -45,-19 l -429,0 -51,-483 q -2,-12 -10.5,-20.5 Q 589,-256 577,-256 l -1,0 q -27,0 -32,27 L 468,256 64,256 Q 38,256 19,275 0,294 0,320 0,443 78.5,541.5 157,640 256,640 l 0,512 q -52,0 -90,38 -38,38 -38,90 0,52 38,90 38,38 90,38 l 640,0 q 52,0 90,-38 38,-38 38,-90 0,-52 -38,-90 -38,-38 -90,-38 l 0,-512 q 99,0 177.5,-98.5 Q 1152,443 1152,320 Z"
       id="path6"
       inkscape:connector-curvature="0"
       style="fill:#c8c8c8;fill-opacity:1" />
  </g>
</svg>
