<?xml version="1.0" encoding="UTF-8" standalone="no"?>
<svg
   xmlns:dc="http://purl.org/dc/elements/1.1/"
   xmlns:cc="http://creativecommons.org/ns#"
   xmlns:rdf="http://www.w3.org/1999/02/22-rdf-syntax-ns#"
   xmlns:svg="http://www.w3.org/2000/svg"
   xmlns="http://www.w3.org/2000/svg"
   xmlns:sodipodi="http://sodipodi.sourceforge.net/DTD/sodipodi-0.dtd"
   xmlns:inkscape="http://www.inkscape.org/namespaces/inkscape"
   height="900"
   width="1400"
   id="svg3435"
   version="1.1"
   inkscape:version="0.91 r13725"
   sodipodi:docname="highlights_clip_warning.svg"
   inkscape:export-filename="/Users/aferrero/Projects/Photoflow/Git/Default/PhotoFlow/icons/highlights_clip_warning.png"
   inkscape:export-xdpi="1.8"
   inkscape:export-ydpi="1.8">
  <metadata
     id="metadata3443">
    <rdf:RDF>
      <cc:Work
         rdf:about="">
        <dc:format>image/svg+xml</dc:format>
        <dc:type
           rdf:resource="http://purl.org/dc/dcmitype/StillImage" />
        <dc:title></dc:title>
      </cc:Work>
    </rdf:RDF>
  </metadata>
  <defs
     id="defs3441">
    <inkscape:perspective
       id="perspective10"
       inkscape:persp3d-origin="372.04724 : 350.78739 : 1"
       inkscape:vp_z="744.09448 : 526.18109 : 1"
       inkscape:vp_y="0 : 1000 : 0"
       inkscape:vp_x="0 : 526.18109 : 1"
       sodipodi:type="inkscape:persp3d" />
  </defs>
  <sodipodi:namedview
     pagecolor="#ffffff"
     bordercolor="#666666"
     borderopacity="1"
     objecttolerance="10"
     gridtolerance="10"
     guidetolerance="10"
     inkscape:pageopacity="0"
     inkscape:pageshadow="2"
     inkscape:window-width="1280"
     inkscape:window-height="751"
     id="namedview3439"
     showgrid="false"
     inkscape:zoom="0.549"
     inkscape:cx="666.66666"
     inkscape:cy="500"
     inkscape:window-x="0"
     inkscape:window-y="0"
     inkscape:window-maximized="1"
     inkscape:current-layer="svg3435" />
  <path
     d="m 25.696,450 q 0,-13.664 8.784,-22.448 8.784,-8.784 22.448,-8.784 l 62.464,0 q 13.664,0 22.448,8.784 8.784,8.784 8.784,22.448 0,13.664 -8.784,22.448 -8.784,8.784 -22.448,8.784 l -62.464,0 q -13.664,0 -22.448,-8.784 Q 25.696,463.664 25.696,450 Z m 119.072,286.944 q -10.736,-10.736 -10.736,-21.96 0,-11.224 10.736,-22.936 l 44.896,-42.944 q 10.736,-12.2 21.96,-12.2 l 20.984,11.224 q 10.736,11.224 10.736,22.204 0,10.98 -10.736,21.716 l -42.944,44.896 q -11.712,10.736 -22.936,10.736 -11.224,0 -21.96,-10.736 z m 0,-528.992 q -10.736,-11.712 -10.736,-22.936 0,-11.224 10.736,-21.96 10.736,-10.736 21.96,-10.736 11.224,0 22.936,10.736 l 42.944,44.896 q 10.736,10.736 10.736,21.472 0,10.736 -10.736,21.472 -10.736,10.736 -21.472,10.736 L 189.664,250.896 Z M 213.088,450 q 0,-89.792 64.416,-154.208 64.416,-64.416 154.208,-64.416 89.792,0 154.208,64.416 64.416,64.416 64.416,154.208 0,89.792 -64.416,154.208 -64.416,64.416 -154.208,64.416 -89.792,0 -154.208,-64.416 Q 213.088,539.792 213.088,450 Z m 62.464,0 q 0,64.416 45.872,110.288 45.872,45.872 110.288,45.872 64.416,0 109.312,-44.896 Q 587.872,514.416 587.872,450 587.872,385.584 542,339.712 496.128,293.84 431.712,293.84 q -64.416,0 -110.288,45.872 Q 275.552,385.584 275.552,450 Z m 124.928,374.784 0,-62.464 q 0,-13.664 8.784,-22.448 8.784,-8.784 22.448,-8.784 13.664,0 22.448,8.784 8.784,8.784 8.784,22.448 l 0,62.464 q 0,13.664 -8.784,22.448 -8.784,8.784 -22.448,8.784 -13.664,0 -22.448,-8.784 -8.784,-8.784 -8.784,-22.448 z m 0,-687.104 0,-62.464 q 0,-13.664 8.784,-22.448 8.784,-8.784 22.448,-8.784 13.664,0 22.448,8.784 8.784,8.784 8.784,22.448 l 0,62.464 q 0,13.664 -8.784,22.448 -8.784,8.784 -22.448,8.784 -13.664,0 -22.448,-8.784 -8.784,-8.784 -8.784,-22.448 z m 230.336,554.368 q -10.736,-10.736 -10.736,-21.472 0,-10.736 10.736,-21.472 10.736,-10.736 21.472,-10.736 l 21.472,10.736 44.896,42.944 q 10.736,11.712 10.736,22.936 0,11.224 -10.736,21.96 -10.736,10.736 -21.96,10.736 -11.224,0 -22.936,-10.736 z m 0,-441.152 Q 620.08,240.16 620.08,229.424 q 0,-10.736 10.736,-21.472 l 42.944,-44.896 q 11.712,-10.736 22.936,-10.736 11.224,0 21.96,10.736 10.736,10.736 10.736,21.96 0,11.224 -10.736,22.936 l -44.896,42.944 q -10.736,10.736 -21.472,10.736 z M 712.8,450 q 0,-13.664 8.784,-22.448 8.784,-8.784 22.448,-8.784 l 62.464,0 q 13.664,0 22.448,8.784 8.784,8.784 8.784,22.448 0,13.664 -8.784,22.448 -8.784,8.784 -22.448,8.784 l -62.464,0 q -13.664,0 -22.448,-8.784 Q 712.8,463.664 712.8,450 Z"
     id="path3437"
     style="opacity:1;fill:#c8c8c8;fill-opacity:1"
     inkscape:connector-curvature="0" />
  <g
     id="layer1"
     inkscape:label="Layer 1"
     transform="translate(905.96162,-158.57652)">
    <path
       inkscape:connector-curvature="0"
       id="text7445"
       d="m 312.85714,843.07654 34,-1 c 21.99964,1.3e-4 36.33296,1.6668 43,5 9.99961,4.66679 17.33293,12.00012 22,22 3.33292,6.66677 4.99959,20.33342 5,41 -4.1e-4,20.66676 -1.66708,34.33336 -5,40.99996 -4.66707,10.0001 -12.00039,17.3334 -22,22 -6.66704,3.3334 -20.66703,5 -42,5 l -38,-2 c -1.33364,0 -2.66697,-0.3333 -4,-1 -6.00029,-2 -11.66696,-5.6666 -17,-11 -6.00028,-5.9999 -10.00027,-11.6666 -12,-17 -2.00027,-5.9999 -3.00027,-18.3332 -3,-36.99996 -2.7e-4,-18.66658 0.99973,-30.9999 3,-37 1.99973,-5.99989 5.99972,-11.66655 12,-17 6.66638,-6.66654 14.66637,-10.99987 24,-13 m 2,-604 32,0 c 21.99964,7.4e-4 36.33296,1.33407 43,4 9.99961,4.6674 17.33293,12.00072 22,22 2.66626,6.00071 4.33292,12.0007 5,18 l -12,187 c -8.00039,120.66705 -12.00039,182.00032 -12,184 -1.33372,11.33364 -6.33371,21.0003 -15,29 -5.3337,4.66696 -11.33369,8.33362 -18,11 l -15,2 c -6.00033,2.8e-4 -10.667,-0.66639 -14,-2 -19.33364,-6.66638 -30.33363,-19.9997 -33,-40 l -24,-371 c 0.6664,-5.9993 2.33306,-11.99929 5,-18 3.33306,-6.66595 7.66639,-11.99928 13,-16 6.66637,-5.3326 14.33303,-8.66593 23,-10"
       style="font-style:normal;font-variant:normal;font-weight:normal;font-stretch:normal;font-size:1000px;font-family:OCRA;-inkscape-font-specification:OCRA;fill:#c8c8cd;fill-opacity:1;stroke:none;stroke-width:1px;stroke-linecap:butt;stroke-linejoin:miter;stroke-opacity:1" />
  </g>
  <circle
     style="opacity:1;fill:#c8c8c8;fill-opacity:1;stroke:#000000;stroke-width:0;stroke-miterlimit:4;stroke-dasharray:none;stroke-dashoffset:0;stroke-opacity:1"
     id="path5532"
     cx="431.71201"
     cy="450"
     r="158.46999" />
</svg>
