<svg xmlns="http://www.w3.org/2000/svg" id="libre-pencil" viewBox="0 0 14 14"><path d="M 3.87525,11.986139 4.59604,11.265347 2.73465,9.403961 2.01386,10.124753 v 0.847524 h 1.01386 v 1.013862 H 3.87525 z M 8.01782,4.635643 q 0,-0.174257 -0.17426,-0.174257 -0.0792,0 -0.13465,0.05545 L 3.41584,8.809905 q -0.0554,0.05545 -0.0554,0.134654 0,0.174257 0.17425,0.174257 0.0792,0 0.13466,-0.05545 L 7.96242,4.770297 q 0.0554,-0.05545 0.0554,-0.134654 z M 7.5901,3.114851 10.88515,6.409901 4.29505,13 H 1 V 9.70495 z M 13,3.875247 Q 13,4.29505 12.70693,4.588119 L 11.39208,5.90297 8.09703,2.607921 9.41188,1.30099 Q 9.69703,1 10.12475,1 q 0.4198,0 0.72079,0.30099 l 1.86139,1.853465 Q 13,3.463366 13,3.875247 z"/></svg>