<?xml version="1.0" encoding="UTF-8" standalone="no"?>
<svg
   xmlns:dc="http://purl.org/dc/elements/1.1/"
   xmlns:cc="http://creativecommons.org/ns#"
   xmlns:rdf="http://www.w3.org/1999/02/22-rdf-syntax-ns#"
   xmlns:svg="http://www.w3.org/2000/svg"
   xmlns="http://www.w3.org/2000/svg"
   xmlns:sodipodi="http://sodipodi.sourceforge.net/DTD/sodipodi-0.dtd"
   xmlns:inkscape="http://www.inkscape.org/namespaces/inkscape"
   id="libre-info"
   viewBox="0 0 14 14"
   version="1.1"
   inkscape:version="0.91 r13725"
   sodipodi:docname="libre-info-pressed.svg"
   inkscape:export-filename="/Users/aferrero/Projects/Photoflow/Git/Default/PhotoFlow/icons/libre-info-pressed.png"
   inkscape:export-xdpi="90"
   inkscape:export-ydpi="90">
  <metadata
     id="metadata9">
    <rdf:RDF>
      <cc:Work
         rdf:about="">
        <dc:format>image/svg+xml</dc:format>
        <dc:type
           rdf:resource="http://purl.org/dc/dcmitype/StillImage" />
        <dc:title></dc:title>
      </cc:Work>
    </rdf:RDF>
  </metadata>
  <defs
     id="defs7" />
  <sodipodi:namedview
     pagecolor="#ffffff"
     bordercolor="#666666"
     borderopacity="1"
     objecttolerance="10"
     gridtolerance="10"
     guidetolerance="10"
     inkscape:pageopacity="0"
     inkscape:pageshadow="2"
     inkscape:window-width="1280"
     inkscape:window-height="751"
     id="namedview5"
     showgrid="true"
     inkscape:zoom="16.857143"
     inkscape:cx="7"
     inkscape:cy="7"
     inkscape:window-x="0"
     inkscape:window-y="1"
     inkscape:window-maximized="1"
     inkscape:current-layer="libre-info">
    <inkscape:grid
       type="xygrid"
       id="grid4137" />
  </sodipodi:namedview>
  <path
     d="m 7.9663067,13.394773 c -1.17674,0.4136 -2.14677,-0.0607 -1.95214,-1.19067 0.19458,-1.13034 1.31122,-3.5502001 1.47053,-4.0076501 0.15917,-0.4576 -0.14609,-0.58307 -0.4733,-0.39694 -0.1887,0.10891 -0.46914,0.32712 -0.70997,0.53916 -0.0667,-0.13435 -0.16065,-0.28802 -0.23114,-0.43516 0.39288,-0.3937397 1.04964,-0.9215897 1.8272,-1.1128297 0.92889,-0.22933 2.4815103,0.13721 1.81421,1.9128097 -0.4765,1.26555 -0.81349,2.1388901 -1.02587,2.7892601 -0.21219,0.6506 0.0399,0.787 0.41144,0.53353 0.29022,-0.19816 0.59954,-0.46772 0.82619,-0.67686 0.1048503,0.17043 0.1384003,0.22479 0.2421103,0.42061 -0.3935003,0.40334 -1.4228103,1.34717 -2.1992603,1.62474 z M 10.404347,5.5661732 c -0.5337203,0.4543 -1.3248303,0.44442 -1.7673503,-0.0222 -0.44247,-0.46638 -0.36863,-1.21277 0.16494,-1.66722 0.53372,-0.45425 1.3249303,-0.44442 1.7673493,0.022 0.44242,0.46657 0.36863,1.21305 -0.164939,1.6675 z"
     id="path3"
     style="fill:#ffffff;fill-opacity:1;stroke:none;stroke-opacity:1"
     inkscape:connector-curvature="0" />
</svg>
