<?xml version="1.0" encoding="UTF-8" standalone="no"?>
<!-- Created with Inkscape (http://www.inkscape.org/) -->

<svg
   xmlns:dc="http://purl.org/dc/elements/1.1/"
   xmlns:cc="http://creativecommons.org/ns#"
   xmlns:rdf="http://www.w3.org/1999/02/22-rdf-syntax-ns#"
   xmlns:svg="http://www.w3.org/2000/svg"
   xmlns="http://www.w3.org/2000/svg"
   xmlns:sodipodi="http://sodipodi.sourceforge.net/DTD/sodipodi-0.dtd"
   xmlns:inkscape="http://www.inkscape.org/namespaces/inkscape"
   width="744.09448819"
   height="1052.3622047"
   id="svg2"
   sodipodi:version="0.32"
   inkscape:version="0.91 r13725"
   sodipodi:docname="OCR-A_char_Exclamation_Mark.svg"
   inkscape:output_extension="org.inkscape.output.svg.inkscape"
   version="1.1">
  <defs
     id="defs4">
    <inkscape:perspective
       sodipodi:type="inkscape:persp3d"
       inkscape:vp_x="0 : 526.18109 : 1"
       inkscape:vp_y="0 : 1000 : 0"
       inkscape:vp_z="744.09448 : 526.18109 : 1"
       inkscape:persp3d-origin="372.04724 : 350.78739 : 1"
       id="perspective10" />
  </defs>
  <sodipodi:namedview
     id="base"
     pagecolor="#ffffff"
     bordercolor="#666666"
     borderopacity="1.0"
     gridtolerance="10000"
     guidetolerance="10"
     objecttolerance="10"
     inkscape:pageopacity="0.0"
     inkscape:pageshadow="2"
     inkscape:zoom="0.35"
     inkscape:cx="393.917"
     inkscape:cy="601.64225"
     inkscape:document-units="px"
     inkscape:current-layer="layer1"
     showgrid="false"
     inkscape:window-width="664"
     inkscape:window-height="722"
     inkscape:window-x="5"
     inkscape:window-y="73"
     inkscape:window-maximized="0" />
  <metadata
     id="metadata7">
    <rdf:RDF>
      <cc:Work
         rdf:about="">
        <dc:format>image/svg+xml</dc:format>
        <dc:type
           rdf:resource="http://purl.org/dc/dcmitype/StillImage" />
      </cc:Work>
    </rdf:RDF>
  </metadata>
  <g
     inkscape:label="Layer 1"
     inkscape:groupmode="layer"
     id="layer1">
    <path
       style="font-style:normal;font-variant:normal;font-weight:normal;font-stretch:normal;font-size:1000px;font-family:OCRA;-inkscape-font-specification:OCRA;fill:#c8c8cd;fill-opacity:1;stroke:none;stroke-width:1px;stroke-linecap:butt;stroke-linejoin:miter;stroke-opacity:1"
       d="m 312.85714,843.07654 34,-1 c 21.99964,1.3e-4 36.33296,1.6668 43,5 9.99961,4.66679 17.33293,12.00012 22,22 3.33292,6.66677 4.99959,20.33342 5,41 -4.1e-4,20.66676 -1.66708,34.33336 -5,40.99996 -4.66707,10.0001 -12.00039,17.3334 -22,22 -6.66704,3.3334 -20.66703,5 -42,5 l -38,-2 c -1.33364,0 -2.66697,-0.3333 -4,-1 -6.00029,-2 -11.66696,-5.6666 -17,-11 -6.00028,-5.9999 -10.00027,-11.6666 -12,-17 -2.00027,-5.9999 -3.00027,-18.3332 -3,-36.99996 -2.7e-4,-18.66658 0.99973,-30.9999 3,-37 1.99973,-5.99989 5.99972,-11.66655 12,-17 6.66638,-6.66654 14.66637,-10.99987 24,-13 m 2,-604 32,0 c 21.99964,7.4e-4 36.33296,1.33407 43,4 9.99961,4.6674 17.33293,12.00072 22,22 2.66626,6.00071 4.33292,12.0007 5,18 l -12,187 c -8.00039,120.66705 -12.00039,182.00032 -12,184 -1.33372,11.33364 -6.33371,21.0003 -15,29 -5.3337,4.66696 -11.33369,8.33362 -18,11 l -15,2 c -6.00033,2.8e-4 -10.667,-0.66639 -14,-2 -19.33364,-6.66638 -30.33363,-19.9997 -33,-40 l -24,-371 c 0.6664,-5.9993 2.33306,-11.99929 5,-18 3.33306,-6.66595 7.66639,-11.99928 13,-16 6.66637,-5.3326 14.33303,-8.66593 23,-10"
       id="text7445"
       inkscape:connector-curvature="0" />
  </g>
</svg>
