<?xml version="1.0" encoding="UTF-8" standalone="no"?>
<svg
   xmlns:dc="http://purl.org/dc/elements/1.1/"
   xmlns:cc="http://creativecommons.org/ns#"
   xmlns:rdf="http://www.w3.org/1999/02/22-rdf-syntax-ns#"
   xmlns:svg="http://www.w3.org/2000/svg"
   xmlns="http://www.w3.org/2000/svg"
   xmlns:sodipodi="http://sodipodi.sourceforge.net/DTD/sodipodi-0.dtd"
   xmlns:inkscape="http://www.inkscape.org/namespaces/inkscape"
   viewBox="0 -256 1850 1850"
   id="svg2"
   version="1.1"
   inkscape:version="0.91 r13725"
   width="100%"
   height="100%"
   sodipodi:docname="preview_active.svg"
   inkscape:export-filename="/Users/ferrero/Source/PhotoFlow/Git/NewControls/PhotoFlow/icons/preview_active.png"
   inkscape:export-xdpi="0.38918918"
   inkscape:export-ydpi="0.38918918">
  <metadata
     id="metadata12">
    <rdf:RDF>
      <cc:Work
         rdf:about="">
        <dc:format>image/svg+xml</dc:format>
        <dc:type
           rdf:resource="http://purl.org/dc/dcmitype/StillImage" />
      </cc:Work>
    </rdf:RDF>
  </metadata>
  <defs
     id="defs10" />
  <sodipodi:namedview
     pagecolor="#ffffff"
     bordercolor="#666666"
     borderopacity="1"
     objecttolerance="10"
     gridtolerance="10"
     guidetolerance="10"
     inkscape:pageopacity="0"
     inkscape:pageshadow="2"
     inkscape:window-width="1920"
     inkscape:window-height="1152"
     id="namedview8"
     showgrid="false"
     inkscape:zoom="0.13169643"
     inkscape:cx="896"
     inkscape:cy="896"
     inkscape:window-x="0"
     inkscape:window-y="0"
     inkscape:window-maximized="1"
     inkscape:current-layer="svg2" />
  <path
     style="fill:#c8c8c8;fill-opacity:1"
     inkscape:connector-curvature="0"
     id="path6"
     d="m 1694.3729,683.8983 q -152,-236 -381,-353 61,104 61,225 0,185 -131.5,316.5 -131.5,131.5 -316.50002,131.5 -185,0 -316.5,-131.5 -131.5,-131.5 -131.5,-316.5 0,-121 61,-225 -229,117 -381,353 133,205 333.5,326.5 200.5,121.5 434.5,121.5 234.00002,0 434.50002,-121.5 200.5,-121.5 333.5,-326.5 z m -720.00002,-384 q 0,-20 -14,-34 -14,-14 -34,-14 -125,0 -214.5,89.5 -89.5,89.5 -89.5,214.5 0,20 14,34 14,14 34,14 20,0 34,-14 14,-14 14,-34 0,-86 61,-147 61,-61 147,-61 20,0 34,-14 14,-14 14,-34 z m 848.00002,384 q 0,34 -20,69 -140,230 -376.5,368.5 -236.5,138.5 -499.50002,138.5 -263,0 -499.5,-139 -236.5,-139 -376.499999,-368 -20,-35 -20,-69 0,-34 20,-69 139.999999,-229 376.499999,-368 236.5,-139 499.5,-139 263.00002,0 499.50002,139 236.5,139 376.5,368 20,35 20,69 z" />
</svg>
