<?xml version="1.0" encoding="UTF-8" standalone="no"?>
<!-- Generator: Adobe Illustrator 16.0.0, SVG Export Plug-In . SVG Version: 6.00 Build 0)  -->

<svg
   xmlns:dc="http://purl.org/dc/elements/1.1/"
   xmlns:cc="http://creativecommons.org/ns#"
   xmlns:rdf="http://www.w3.org/1999/02/22-rdf-syntax-ns#"
   xmlns:svg="http://www.w3.org/2000/svg"
   xmlns="http://www.w3.org/2000/svg"
   xmlns:sodipodi="http://sodipodi.sourceforge.net/DTD/sodipodi-0.dtd"
   xmlns:inkscape="http://www.inkscape.org/namespaces/inkscape"
   version="1.1"
   id="Layer_1"
   x="0px"
   y="0px"
   width="512px"
   height="512px"
   viewBox="0 0 512 512"
   enable-background="new 0 0 512 512"
   xml:space="preserve"
   inkscape:version="0.91 r13725"
   sodipodi:docname="trash.svg"
   inkscape:export-filename="/Users/aferrero/Projects/Photoflow/Git/Default/PhotoFlow/icons/trash.png"
   inkscape:export-xdpi="2.46"
   inkscape:export-ydpi="2.46"><metadata
     id="metadata4190"><rdf:RDF><cc:Work
         rdf:about=""><dc:format>image/svg+xml</dc:format><dc:type
           rdf:resource="http://purl.org/dc/dcmitype/StillImage" /></cc:Work></rdf:RDF></metadata><defs
     id="defs4188" /><sodipodi:namedview
     pagecolor="#ffffff"
     bordercolor="#666666"
     borderopacity="1"
     objecttolerance="10"
     gridtolerance="10"
     guidetolerance="10"
     inkscape:pageopacity="0"
     inkscape:pageshadow="2"
     inkscape:window-width="1280"
     inkscape:window-height="751"
     id="namedview4186"
     showgrid="false"
     inkscape:zoom="1.0722656"
     inkscape:cx="256"
     inkscape:cy="256"
     inkscape:window-x="0"
     inkscape:window-y="1"
     inkscape:window-maximized="1"
     inkscape:current-layer="Layer_1" /><path
     fill="#1D1D1B"
     d="M459.232,60.687h-71.955c-1.121-17.642-15.631-31.657-33.553-31.657H161.669  c-17.921,0-32.441,14.015-33.553,31.657H64.579c-18.647,0-33.767,15.12-33.767,33.768v8.442c0,18.648,15.12,33.768,33.767,33.768  h21.04v342.113c0,13.784,11.179,24.963,24.963,24.963h308.996c13.784,0,24.964-11.179,24.964-24.963V136.665h14.691  c18.663,0,33.768-15.12,33.768-33.768v-8.442C493,75.807,477.896,60.687,459.232,60.687z M196.674,443.725  c0,12.58-10.197,22.803-22.802,22.803c-12.598,0-22.803-10.223-22.803-22.803v-284.9c0-12.597,10.205-22.802,22.803-22.802  c12.605,0,22.802,10.206,22.802,22.802V443.725z M287.887,443.725c0,12.58-10.205,22.803-22.803,22.803  s-22.803-10.223-22.803-22.803v-284.9c0-12.597,10.205-22.802,22.803-22.802s22.803,10.206,22.803,22.802V443.725z M379.099,443.725  c0,12.58-10.205,22.803-22.803,22.803c-12.613,0-22.803-10.223-22.803-22.803v-284.9c0-12.597,10.189-22.802,22.803-22.802  c12.598,0,22.803,10.206,22.803,22.802V443.725z"
     id="path4184"
     style="fill:#c8c8c8;fill-opacity:1" /></svg>