<?xml version="1.0" encoding="UTF-8" standalone="no"?>
<!-- Generator: Adobe Illustrator 18.0.0, SVG Export Plug-In . SVG Version: 6.00 Build 0)  -->

<svg
   xmlns:dc="http://purl.org/dc/elements/1.1/"
   xmlns:cc="http://creativecommons.org/ns#"
   xmlns:rdf="http://www.w3.org/1999/02/22-rdf-syntax-ns#"
   xmlns:svg="http://www.w3.org/2000/svg"
   xmlns="http://www.w3.org/2000/svg"
   xmlns:sodipodi="http://sodipodi.sourceforge.net/DTD/sodipodi-0.dtd"
   xmlns:inkscape="http://www.inkscape.org/namespaces/inkscape"
   version="1.1"
   id="Capa_1"
   x="0px"
   y="0px"
   viewBox="0 0 493.944 493.944"
   style="enable-background:new 0 0 493.944 493.944;"
   xml:space="preserve"
   inkscape:version="0.91 r13725"
   sodipodi:docname="camera-flash-3-svgrepo-com.svg"
   inkscape:export-filename="/Users/aferrero/Projects/Photoflow/Git/Stable/PhotoFlow/icons-inverted/tools/flash.png"
   inkscape:export-xdpi="2.9200001"
   inkscape:export-ydpi="2.9200001"><metadata
     id="metadata10170"><rdf:RDF><cc:Work
         rdf:about=""><dc:format>image/svg+xml</dc:format><dc:type
           rdf:resource="http://purl.org/dc/dcmitype/StillImage" /><dc:title></dc:title></cc:Work></rdf:RDF></metadata><defs
     id="defs10168" /><sodipodi:namedview
     pagecolor="#ffffff"
     bordercolor="#666666"
     borderopacity="1"
     objecttolerance="10"
     gridtolerance="10"
     guidetolerance="10"
     inkscape:pageopacity="0"
     inkscape:pageshadow="2"
     inkscape:window-width="1280"
     inkscape:window-height="751"
     id="namedview10166"
     showgrid="false"
     inkscape:zoom="0.47778696"
     inkscape:cx="-277.32025"
     inkscape:cy="246.972"
     inkscape:window-x="0"
     inkscape:window-y="1"
     inkscape:window-maximized="1"
     inkscape:current-layer="Capa_1" /><path
     id="XMLID_530_"
     d="M367.468,175.996c-3.368-5.469-9.317-8.807-15.734-8.807h-84.958l45.919-143.098  c1.797-5.614,0.816-11.76-2.662-16.521c-3.464-4.748-9.014-7.57-14.9-7.57h-84.446c-8.02,0-15.125,5.18-17.563,12.814  l-68.487,213.465c-1.797,5.613-0.817,11.756,2.663,16.52c3.464,4.748,9.013,7.57,14.899,7.57h14.868h68.183l-22.006,235.037  c-0.352,3.736,2.004,7.185,5.614,8.227c3.593,1.045,7.427-0.608,9.126-3.961L368.19,194.01  C371.093,188.281,370.82,181.467,367.468,175.996z"
     style="fill:#f0f0f0;fill-opacity:1;stroke:none" /><g
     id="g10136" /><g
     id="g10138" /><g
     id="g10140" /><g
     id="g10142" /><g
     id="g10144" /><g
     id="g10146" /><g
     id="g10148" /><g
     id="g10150" /><g
     id="g10152" /><g
     id="g10154" /><g
     id="g10156" /><g
     id="g10158" /><g
     id="g10160" /><g
     id="g10162" /><g
     id="g10164" /></svg>