<?xml version="1.0" encoding="UTF-8" standalone="no"?>
<!-- Generator: Adobe Illustrator 18.1.1, SVG Export Plug-In . SVG Version: 6.00 Build 0)  -->

<svg
   xmlns:dc="http://purl.org/dc/elements/1.1/"
   xmlns:cc="http://creativecommons.org/ns#"
   xmlns:rdf="http://www.w3.org/1999/02/22-rdf-syntax-ns#"
   xmlns:svg="http://www.w3.org/2000/svg"
   xmlns="http://www.w3.org/2000/svg"
   xmlns:sodipodi="http://sodipodi.sourceforge.net/DTD/sodipodi-0.dtd"
   xmlns:inkscape="http://www.inkscape.org/namespaces/inkscape"
   version="1.1"
   id="Capa_1"
   x="0px"
   y="0px"
   viewBox="0 0 57.475 57.475"
   style="enable-background:new 0 0 57.475 57.475;"
   xml:space="preserve"
   inkscape:version="0.91 r13725"
   sodipodi:docname="camera-flash-svgrepo-com.svg"
   inkscape:export-filename="/Users/aferrero/Projects/Photoflow/Git/Stable/PhotoFlow/icons-inverted/tools/flash.png"
   inkscape:export-xdpi="25.049999"
   inkscape:export-ydpi="25.049999"><metadata
     id="metadata5494"><rdf:RDF><cc:Work
         rdf:about=""><dc:format>image/svg+xml</dc:format><dc:type
           rdf:resource="http://purl.org/dc/dcmitype/StillImage" /><dc:title></dc:title></cc:Work></rdf:RDF></metadata><defs
     id="defs5492" /><sodipodi:namedview
     pagecolor="#ffffff"
     bordercolor="#666666"
     borderopacity="1"
     objecttolerance="10"
     gridtolerance="10"
     guidetolerance="10"
     inkscape:pageopacity="0"
     inkscape:pageshadow="2"
     inkscape:window-width="1280"
     inkscape:window-height="751"
     id="namedview5490"
     showgrid="false"
     inkscape:zoom="4.1061332"
     inkscape:cx="-3.8966101"
     inkscape:cy="28.737499"
     inkscape:window-x="0"
     inkscape:window-y="1"
     inkscape:window-maximized="1"
     inkscape:current-layer="g5446" /><g
     id="g5446"><g
       id="g5448"><path
         style="fill:#f0f0f0;fill-opacity:1"
         d="M44.032,21.336h-3.854l-1.809-6.287c-0.247-0.857-1.03-1.447-1.922-1.447h-15    c-0.855,0-1.616,0.544-1.893,1.354l-2.18,6.381h-3.93c-6.617,0-12,5.383-12,12v12.138c0,6.617,5.383,12,12,12h30.587    c6.617,0,12-5.383,12-12V33.336C56.032,26.719,50.649,21.336,44.032,21.336z M22.878,17.602h12.064l1.075,3.734H21.602    L22.878,17.602z M52.032,45.475c0,4.411-3.589,8-8,8H13.445c-4.411,0-8-3.589-8-8V33.336c0-4.411,3.589-8,8-8h5.349    c0.004,0,0.008,0.001,0.012,0.001c0.002,0,0.004-0.001,0.006-0.001h25.221c4.411,0,8,3.589,8,8L52.032,45.475L52.032,45.475z"
         id="path5450" /><path
         style="fill:#f0f0f0;fill-opacity:1"
         d="M28.739,27.472c-6.58,0-11.934,5.354-11.934,11.934S22.159,51.34,28.739,51.34    s11.934-5.354,11.934-11.934S35.319,27.472,28.739,27.472z M28.739,47.339c-4.375,0-7.934-3.559-7.934-7.934    s3.559-7.934,7.934-7.934c4.374,0,7.934,3.559,7.934,7.934S33.113,47.339,28.739,47.339z"
         id="path5452" /><path
         style="fill:#f0f0f0;fill-opacity:1"
         d="M28.674,9.133c0.829,0,1.5-0.672,1.5-1.5V1.5c0-0.828-0.671-1.5-1.5-1.5    c-0.829,0-1.5,0.672-1.5,1.5v6.133C27.174,8.461,27.846,9.133,28.674,9.133z"
         id="path5454" /><path
         style="fill:#f0f0f0;fill-opacity:1"
         d="M22.247,11.295c0.293,0.293,0.677,0.439,1.061,0.439s0.768-0.146,1.06-0.439    c0.586-0.586,0.586-1.535,0-2.121l-4.337-4.336c-0.586-0.586-1.536-0.586-2.121,0c-0.586,0.586-0.586,1.535,0,2.121L22.247,11.295    z"
         id="path5456" /><path
         style="fill:#f0f0f0;fill-opacity:1"
         d="M34.171,11.735c0.384,0,0.768-0.146,1.061-0.439l4.337-4.336c0.586-0.586,0.586-1.535,0-2.121    c-0.585-0.586-1.535-0.586-2.121,0l-4.337,4.336c-0.586,0.586-0.586,1.535,0,2.121C33.403,11.588,33.787,11.735,34.171,11.735z"
         id="path5458" /></g></g><g
     id="g5460" /><g
     id="g5462" /><g
     id="g5464" /><g
     id="g5466" /><g
     id="g5468" /><g
     id="g5470" /><g
     id="g5472" /><g
     id="g5474" /><g
     id="g5476" /><g
     id="g5478" /><g
     id="g5480" /><g
     id="g5482" /><g
     id="g5484" /><g
     id="g5486" /><g
     id="g5488" /></svg>