<?xml version="1.0" encoding="UTF-8" standalone="no"?>
<!-- Generator: Adobe Illustrator 19.0.0, SVG Export Plug-In . SVG Version: 6.00 Build 0)  -->

<svg
   xmlns:dc="http://purl.org/dc/elements/1.1/"
   xmlns:cc="http://creativecommons.org/ns#"
   xmlns:rdf="http://www.w3.org/1999/02/22-rdf-syntax-ns#"
   xmlns:svg="http://www.w3.org/2000/svg"
   xmlns="http://www.w3.org/2000/svg"
   xmlns:sodipodi="http://sodipodi.sourceforge.net/DTD/sodipodi-0.dtd"
   xmlns:inkscape="http://www.inkscape.org/namespaces/inkscape"
   version="1.1"
   id="Layer_1"
   x="0px"
   y="0px"
   viewBox="0 0 329.993 329.993"
   style="enable-background:new 0 0 329.993 329.993;"
   xml:space="preserve"
   inkscape:version="0.91 r13725"
   sodipodi:docname="flash-svgrepo-com.svg"
   inkscape:export-filename="/Users/aferrero/Projects/Photoflow/Git/Stable/PhotoFlow/icons-inverted/tools/flash.png"
   inkscape:export-xdpi="4.3600001"
   inkscape:export-ydpi="4.3600001"><metadata
     id="metadata8212"><rdf:RDF><cc:Work
         rdf:about=""><dc:format>image/svg+xml</dc:format><dc:type
           rdf:resource="http://purl.org/dc/dcmitype/StillImage" /><dc:title></dc:title></cc:Work></rdf:RDF></metadata><defs
     id="defs8210" /><sodipodi:namedview
     pagecolor="#ffffff"
     bordercolor="#666666"
     borderopacity="1"
     objecttolerance="10"
     gridtolerance="10"
     guidetolerance="10"
     inkscape:pageopacity="0"
     inkscape:pageshadow="2"
     inkscape:window-width="1280"
     inkscape:window-height="751"
     id="namedview8208"
     showgrid="false"
     inkscape:zoom="0.71516666"
     inkscape:cx="-185.2715"
     inkscape:cy="164.99651"
     inkscape:window-x="0"
     inkscape:window-y="1"
     inkscape:window-maximized="1"
     inkscape:current-layer="g8164" /><g
     id="g8164"><g
       id="g8166"><g
         id="g8168"><path
           d="M164.997,69.993c8.284,0,15-6.716,15-15V15.001c0-8.284-6.716-15-15-15s-15,6.716-15,15v39.992     C149.997,63.278,156.713,69.993,164.997,69.993z"
           id="path8170"
           style="stroke:none;stroke-opacity:1;fill:#f0f0f0;fill-opacity:1" /><path
           d="M105.008,69.994c3.132,0,6.291-0.978,8.989-3.002c6.627-4.971,7.969-14.373,2.998-21L86.996,6     c-4.97-6.626-14.373-7.971-21-2.998c-6.627,4.971-7.969,14.373-2.998,21l30,39.992C95.945,67.923,100.448,69.994,105.008,69.994z     "
           id="path8172"
           style="stroke:none;stroke-opacity:1;fill:#f0f0f0;fill-opacity:1" /><path
           d="M263.998,3.002c-6.627-4.972-16.028-3.629-21,2.998l-30,39.992c-4.971,6.627-3.629,16.029,2.998,21     c2.699,2.024,5.857,3.002,8.989,3.002c4.56,0,9.064-2.072,12.011-6l30-39.992C271.967,17.375,270.625,7.973,263.998,3.002z"
           id="path8174"
           style="stroke:none;stroke-opacity:1;fill:#f0f0f0;fill-opacity:1" /><path
           d="M244.997,99.993h-160c-8.284,0-15,6.716-15,15v80c0,8.284,6.716,15,15,15h5v45c0,8.284,6.716,15,15,15h15v45     c0,8.284,6.716,15,15,15h60c8.284,0,15-6.716,15-15v-45h15c8.284,0,15-6.716,15-15v-45h5c8.284,0,15-6.716,15-15v-80     C259.997,106.709,253.281,99.993,244.997,99.993z M179.997,299.993h-30v-30h30V299.993z M209.997,239.993h-15h-60h-15v-30h90     V239.993z M229.997,179.993h-5h-120h-5v-50h130V179.993z"
           id="path8176"
           style="stroke:none;fill:#f0f0f0;fill-opacity:1" /></g></g></g><g
     id="g8178" /><g
     id="g8180" /><g
     id="g8182" /><g
     id="g8184" /><g
     id="g8186" /><g
     id="g8188" /><g
     id="g8190" /><g
     id="g8192" /><g
     id="g8194" /><g
     id="g8196" /><g
     id="g8198" /><g
     id="g8200" /><g
     id="g8202" /><g
     id="g8204" /><g
     id="g8206" /></svg>